Coordinates
version=1
nRows=30
nColumns=30
inDegrees=yes

Units are S.I. units (second, meters, Newtons, ...)
Angles are in degrees.

endheader
time	floatyaw	floatroll	floatpitch	floatx	floaty	floatz	pro_sup_l	deviation_l	flexion_l	cmc_flexion_l	cmc_abduction_l	mp_flexion_l	ip_flexion_l	2mcp_flexion_l	2mcp_abduction_l	2pm_flexion_l	2md_flexion_l	3mcp_flexion_l	3mcp_abduction_l	3pm_flexion_l	3md_flexion_l	4mcp_flexion_l	4mcp_abduction_l	4pm_flexion_l	4md_flexion_l	5mcp_flexion_l	5mcp_abduction_l	5pm_flexion_l	5md_flexion_l
-1.495000	-4.245860	-0.556116	99.572370	-0.103236	-0.194697	-0.017296	87.348340	0.879089	-0.576397	15.441919	7.050016	-22.320458	-35.272184	38.671560	8.352831	47.436979	32.616305	22.979388	4.673316	48.426200	32.448534	11.356848	-4.560837	63.722779	42.588107	5.889221	-8.326557	62.720971	42.141179
-1.485000	-4.245860	-0.556116	99.572370	-0.103238	-0.194709	-0.017304	87.353475	0.887750	-0.590817	15.432872	7.031577	-22.314767	-35.260493	38.677661	8.350993	47.433989	32.612470	23.000701	4.669290	48.436890	32.449376	11.381566	-4.569847	63.725062	42.588212	5.856610	-8.302091	62.753430	42.156898
-1.475000	-4.245860	-0.556116	99.572370	-0.103241	-0.194723	-0.017312	87.358488	0.896339	-0.606865	15.428511	7.020670	-22.312612	-35.253925	38.679086	8.351575	47.431287	32.608915	23.024919	4.664946	48.453310	32.452655	11.409509	-4.578569	63.723764	42.585397	5.821040	-8.282768	62.793383	42.173995
-1.465000	-4.245860	-0.556116	99.572370	-0.103244	-0.194737	-0.017319	87.360237	0.902295	-0.621400	15.427067	7.017116	-22.314244	-35.252488	38.679588	8.354205	47.433549	32.608828	23.047419	4.661303	48.476756	32.459215	11.434607	-4.584564	63.720418	42.581935	5.791825	-8.273911	62.836483	42.189169
-1.455000	-4.245860	-0.556116	99.572370	-0.103246	-0.194749	-0.017325	87.356119	0.903585	-0.631275	15.425632	7.018323	-22.319223	-35.254910	38.681571	8.357374	47.444057	32.614527	23.062810	4.659594	48.505870	32.468972	11.451561	-4.586167	63.716607	42.579878	5.777374	-8.278212	62.875581	42.198859
-1.445000	-4.245860	-0.556116	99.572370	-0.103247	-0.194756	-0.017330	87.345245	0.899218	-0.634517	15.421135	7.021021	-22.326319	-35.258917	38.685197	8.359288	47.462825	32.626271	23.067196	4.660748	48.537074	32.480875	11.457459	-4.583017	63.713735	42.580566	5.781330	-8.294722	62.903653	42.200840
-1.435000	-4.245860	-0.556116	99.572370	-0.103250	-0.194758	-0.017331	87.329044	0.889579	-0.631115	15.411344	7.022843	-22.333709	-35.261893	38.688853	8.358856	47.486590	32.642165	23.060103	4.664846	48.566053	32.493275	11.452858	-4.576243	63.712952	42.584396	5.800683	-8.319166	62.916636	42.195265
-1.425000	-4.245860	-0.556116	99.572370	-0.103253	-0.194755	-0.017328	87.311021	0.876390	-0.623057	15.395629	7.022997	-22.339508	-35.261748	38.690595	8.356204	47.510650	32.659133	23.045031	4.670884	48.589578	32.504531	11.441827	-4.568184	63.715026	42.590804	5.826885	-8.345289	62.914859	42.184565
-1.415000	-4.245860	-0.556116	99.572370	-0.103258	-0.194748	-0.017321	87.295635	0.862198	-0.613592	15.375148	7.021993	-22.342503	-35.257722	38.689656	8.352431	47.531358	32.674357	23.028212	4.677019	48.606774	32.513535	11.430542	-4.561592	63.720141	42.598487	5.849354	-8.366589	62.902688	42.172332
-1.405000	-4.245860	-0.556116	99.572370	-0.103263	-0.194741	-0.017310	87.286570	0.849469	-0.606005	15.352265	7.020804	-22.342764	-35.250736	38.687170	8.348790	47.547632	32.686254	23.016089	4.681266	48.619105	32.519868	11.424641	-4.558566	63.727819	42.605907	5.859543	-8.377852	62.886893	42.161867
-1.395000	-4.245860	-0.556116	99.572370	-0.103267	-0.194734	-0.017297	87.285101	0.839574	-0.602475	15.329505	7.019852	-22.341712	-35.243066	38.685834	8.345910	47.560603	32.694500	23.012887	4.682323	48.629090	32.523515	11.426594	-4.559749	63.737168	42.611935	5.853627	-8.376180	62.874628	42.155195
-1.385000	-4.245860	-0.556116	99.572370	-0.103271	-0.194730	-0.017283	87.289532	0.832210	-0.603540	15.308604	7.018144	-22.341507	-35.237381	38.688780	8.343625	47.571867	32.699317	23.019559	4.680159	48.638523	32.524396	11.434850	-4.564296	63.747354	42.616298	5.832774	-8.361373	62.871737	42.152922
-1.375000	-4.245860	-0.556116	99.572370	-0.103273	-0.194729	-0.017269	87.296137	0.825581	-0.608346	15.290053	7.013041	-22.344053	-35.235541	38.698268	8.341431	47.581810	32.700785	23.034449	4.676082	48.647353	32.522122	11.445523	-4.570629	63.757840	42.619491	5.801322	-8.335661	62.881572	42.154708
-1.365000	-4.245860	-0.556116	99.572370	-0.103274	-0.194729	-0.017254	87.301018	0.817279	-0.615399	15.273131	7.001207	-22.350131	-35.237701	38.714759	8.339037	47.589225	32.698752	23.054779	4.672238	48.653971	32.516303	11.455421	-4.577388	63.768124	42.622152	5.764367	-8.303032	62.904408	42.159861
-1.355000	-4.245860	-0.556116	99.572370	-0.103274	-0.194729	-0.017238	87.301676	0.805362	-0.623243	15.256235	6.980753	-22.359043	-35.242162	38.736671	8.336517	47.592346	32.693314	23.077716	4.670764	48.656709	32.507251	11.464098	-4.583898	63.777235	42.624406	5.726299	-8.268518	62.937560	42.167606
-1.345000	-4.245860	-0.556116	99.572370	-0.103271	-0.194729	-0.017218	87.297569	0.789200	-0.630736	15.237451	6.953435	-22.368873	-35.246088	38.760849	8.333991	47.590271	32.685259	23.100457	4.673021	48.655506	32.496552	11.473440	-4.589993	63.783640	42.625717	5.690722	-8.237534	62.976240	42.176973
-1.335000	-4.245860	-0.556116	99.572370	-0.103266	-0.194727	-0.017197	87.289737	0.769789	-0.637028	15.215270	6.925057	-22.377151	-35.246690	38.783603	8.331199	47.583718	32.676023	23.119856	4.679205	48.652501	32.486946	11.485481	-4.595603	63.785920	42.625388	5.660962	-8.214980	63.014803	42.186511
-1.325000	-4.245860	-0.556116	99.572370	-0.103259	-0.194723	-0.017175	87.279950	0.749334	-0.641607	15.189251	6.903200	-22.381573	-35.242229	38.802022	8.327409	47.574713	32.667189	23.132621	4.688380	48.651150	32.481396	11.500464	-4.600593	63.783822	42.623290	5.640086	-8.203965	63.047931	42.194211
-1.315000	-4.245860	-0.556116	99.572370	-0.103252	-0.194720	-0.017155	87.269759	0.730113	-0.644548	15.160357	6.893440	-22.380521	-35.232373	38.815123	8.321885	47.565753	32.659962	23.136491	4.698788	48.654570	32.481889	11.516635	-4.604912	63.778858	42.620237	5.630160	-8.204671	63.071536	42.197862
-1.305000	-4.245860	-0.556116	99.572370	-0.103244	-0.194718	-0.017136	87.259779	0.713165	-0.646750	15.130735	6.896440	-22.373422	-35.218017	38.824301	8.314618	47.559086	32.655006	23.131776	4.708318	48.664324	32.488690	11.531583	-4.608745	63.773901	42.617690	5.631227	-8.214133	63.083367	42.195784
-1.295000	-4.245860	-0.556116	99.572370	-0.103236	-0.194718	-0.017116	87.249606	0.697759	-0.649793	15.102983	6.907602	-22.361143	-35.200956	38.832684	8.306632	47.556363	32.652594	23.122029	4.715080	48.680230	32.500390	11.543827	-4.612384	63.771796	42.616933	5.640755	-8.227178	63.083296	42.187565
-1.285000	-4.245860	-0.556116	99.572370	-0.103227	-0.194722	-0.017095	87.238461	0.682094	-0.655249	15.079164	6.919184	-22.346369	-35.183627	38.843624	8.299361	47.558492	32.652810	23.112972	4.718040	48.700822	32.514529	11.553426	-4.615870	63.773722	42.618225	5.654126	-8.238121	63.073199	42.174378
-1.275000	-4.245860	-0.556116	99.572370	-0.103217	-0.194728	-0.017069	87.226040	0.664684	-0.663733	15.059997	6.923554	-22.333380	-35.168745	38.859082	8.293456	47.565596	32.655642	23.109952	4.717490	48.723936	32.528473	11.561337	-4.618703	63.778340	42.620524	5.666454	-8.242757	63.056491	42.158643
-1.265000	-4.245860	-0.556116	99.572370	-0.103206	-0.194735	-0.017042	87.212863	0.645307	-0.674284	15.044592	6.916237	-22.326725	-35.158569	38.878818	8.288006	47.577185	32.661007	23.115272	4.715063	48.747275	32.540273	11.568256	-4.619907	63.782473	42.622064	5.675304	-8.240183	63.037384	42.143157
-1.255000	-4.245860	-0.556116	99.572370	-0.103195	-0.194742	-0.017014	87.200005	0.625002	-0.684679	15.030771	6.897745	-22.329096	-35.153912	38.900765	8.280919	47.592548	32.668790	23.127095	4.713104	48.769044	32.549311	11.574018	-4.618552	63.783078	42.621507	5.682634	-8.233590	63.019913	42.130056
-1.245000	-4.245860	-0.556116	99.572370	-0.103187	-0.194747	-0.016989	87.188671	0.605437	-0.692686	15.015787	6.873416	-22.339702	-35.153550	38.922237	8.270375	47.611050	32.678857	23.140730	4.713586	48.788519	32.556411	11.578182	-4.614481	63.779260	42.618860	5.693984	-8.228916	63.006785	42.120121
-1.235000	-4.245860	-0.556116	99.572370	-0.103181	-0.194750	-0.016969	87.180044	0.588208	-0.697483	14.997164	6.850908	-22.354415	-35.154602	38.941122	8.256457	47.631990	32.690903	23.151574	4.717144	48.806205	32.563291	11.581355	-4.608793	63.772909	42.615472	5.714614	-8.231416	62.998505	42.112770
-1.225000	-4.245860	-0.556116	99.572370	-0.103176	-0.194754	-0.016955	87.175234	0.574359	-0.700198	14.973453	6.836303	-22.367879	-35.153847	38.956321	8.241839	47.654062	32.704187	23.157824	4.722811	48.823417	32.571570	11.586002	-4.603629	63.767538	42.613100	5.745154	-8.242177	62.993518	42.106727
-1.215000	-4.245860	-0.556116	99.572370	-0.103172	-0.194758	-0.016945	87.174951	0.564062	-0.703120	14.944663	6.830958	-22.376343	-35.149324	38.967421	8.230777	47.675000	32.717393	23.161201	4.728660	48.841395	32.581828	11.595690	-4.601173	63.766155	42.612766	5.780310	-8.257279	62.989626	42.100998
-1.205000	-4.245860	-0.556116	99.572370	-0.103166	-0.194764	-0.016936	87.178908	0.556510	-0.708114	14.912129	6.831132	-22.379595	-35.141343	38.974328	8.226704	47.691939	32.728840	23.165323	4.732962	48.860342	32.593208	11.612971	-4.602419	63.769600	42.614192	5.811920	-8.270466	62.985914	42.095525
